<?xml version="1.0" encoding="utf-8"?>
<!-- Generator: Adobe Illustrator 19.2.1, SVG Export Plug-In . SVG Version: 6.00 Build 0)  -->
<svg version="1.1" id="Capa_1" xmlns="http://www.w3.org/2000/svg" xmlns:xlink="http://www.w3.org/1999/xlink" x="0px" y="0px"
	 viewBox="0 0 800 800" style="enable-background:new 0 0 800 800;" xml:space="preserve">
<style type="text/css">
	.st0{fill:#0099CC;}
	.st1{fill:#FFFFFF;}
</style>
<circle class="st0" cx="400" cy="400" r="399.9"/>
<g>
	<path class="st1" d="M198.1,101.4c0,0,41.3,616.1,203.1,271.9c0,0-26.7,284.8-148.9,179.8C252.3,553.1,133.6,405.1,198.1,101.4z"/>
	<path class="st1" d="M233.4,695.1l182.4-86c0,0-19.8-121.3,75.7-203.1L208.4,81.6l34.4-19.8l287.4,310.6c0,0,12.9-13.8,37-15.5
		V255.4l12-0.9l28.4,97.2c0,0,118.7,6,108.4,97.2c0,0,3.4,42.2-45.6,38.7c0,0-28.4-12.9-5.2-31.8c0,0,19.8-38.7-49-22.4
		c0,0-98.1,31.8-5.2,131.7c0,0,167.8-0.9,19.8,138.5c0,0-141.1,107.6-211.7-53.4L254,719.2C254,719.2,211.9,728.7,233.4,695.1z"/>
</g>
</svg>
