<?xml version="1.0" encoding="utf-8"?>
<!-- Generator: Adobe Illustrator 17.0.0, SVG Export Plug-In . SVG Version: 6.00 Build 0)  -->
<!DOCTYPE svg PUBLIC "-//W3C//DTD SVG 1.1//EN" "http://www.w3.org/Graphics/SVG/1.1/DTD/svg11.dtd">
<svg version="1.1" id="Capa_1" xmlns="http://www.w3.org/2000/svg" xmlns:xlink="http://www.w3.org/1999/xlink" x="0px" y="0px"
	 width="70px" height="70px" viewBox="0 0 70 70" enable-background="new 0 0 70 70" xml:space="preserve">
<g>
	<path fill="#FFFFFF" d="M9.282,4.079c0,0,4.254,63.464,20.921,28.008c0,0-2.75,29.337-15.338,18.521
		C14.865,50.609,2.638,35.363,9.282,4.079z"/>
	<path fill="#FFFFFF" d="M12.918,65.236l18.789-8.859c0,0-2.04-12.495,7.798-20.921L10.343,2.04L13.886,0l29.605,31.995
		c0,0,1.329-1.422,3.811-1.597V19.943l1.236-0.093l2.925,10.013c0,0,12.227,0.618,11.166,10.013c0,0,0.35,4.347-4.697,3.986
		c0,0-2.925-1.329-0.536-3.276c0,0,2.04-3.986-5.047-2.307c0,0-10.105,3.276-0.536,13.566c0,0,17.285-0.093,2.04,14.267
		c0,0-14.535,11.084-21.807-5.501L15.04,67.718C15.04,67.718,10.703,68.697,12.918,65.236z"/>
</g>
</svg>
